PathFileType	4	(X/Y/Z)	C:\Users\Basilio\Documents\Thesis Gigler\squatting_fais\c3dfiles\075\SLS_front_pre1\markers_experimental.trc
DataRate	CameraRate	NumFrames	NumMarkers	Units	OrigDataRate	OrigDataStartFrame	OrigNumFrames
200.000000	200.000000	4	61	mm	200.000000	312	1249
Frame#	Time	FHD			LBHD			C7			T10			CLAV			LSHO			LUUPA			LMUPA			LDUPA			LLEP			LMEP			LUL			LRFIN			RSHO			RUPA1			RMUPA			RDUPA			RLEP			RMEP			RRAD			RUL			RUFIN			LASI			RASI			USACR			LSACR			RSACR			LTHI1			LTHI2			LTHI3			LTHI4			LLFC			LMFC			LTIB1			LTIB2			LTIB3			LTIB4			LLMAL			LMMAL			LHEE			LMT1			LMT2			LMT5			RTHI			RTHI2			RTHI3			RTHI4			RLFC			RMFC			RTIB1			RTIB2			RTIB3			RTIB4			RLMAL			RMMAL			RHEE			RMT1			RMT2			RMT5			LRAD			RBHD			
		X1	Y1	Z1	X2	Y2	Z2	X3	Y3	Z3	X4	Y4	Z4	X5	Y5	Z5	X6	Y6	Z6	X7	Y7	Z7	X8	Y8	Z8	X9	Y9	Z9	X10	Y10	Z10	X11	Y11	Z11	X12	Y12	Z12	X13	Y13	Z13	X14	Y14	Z14	X15	Y15	Z15	X16	Y16	Z16	X17	Y17	Z17	X18	Y18	Z18	X19	Y19	Z19	X20	Y20	Z20	X21	Y21	Z21	X22	Y22	Z22	X23	Y23	Z23	X24	Y24	Z24	X25	Y25	Z25	X26	Y26	Z26	X27	Y27	Z27	X28	Y28	Z28	X29	Y29	Z29	X30	Y30	Z30	X31	Y31	Z31	X32	Y32	Z32	X33	Y33	Z33	X34	Y34	Z34	X35	Y35	Z35	X36	Y36	Z36	X37	Y37	Z37	X38	Y38	Z38	X39	Y39	Z39	X40	Y40	Z40	X41	Y41	Z41	X42	Y42	Z42	X43	Y43	Z43	X44	Y44	Z44	X45	Y45	Z45	X46	Y46	Z46	X47	Y47	Z47	X48	Y48	Z48	X49	Y49	Z49	X50	Y50	Z50	X51	Y51	Z51	X52	Y52	Z52	X53	Y53	Z53	X54	Y54	Z54	X55	Y55	Z55	X56	Y56	Z56	X57	Y57	Z57	X58	Y58	Z58	X59	Y59	Z59	X60	Y60	Z60	X61	Y61	Z61	

313	1.56	-298.2048950195313	1699.768432617188	-767.4718017578126	-438.167205810547	1577.224609375	-839.787292480469	-472.9393615722657	1458.871704101563	-781.6001586914065	-486.0323791503907	1136.27587890625	-780.6752929687502	-326.5848083496094	1405.343994140625	-772.4119262695315	-357.4126892089844	1436.97705078125	-918.1734008789065	-211.0244445800782	1336.562255859375	-1002.570373535156	-180.9990844726563	1356.232421875	-967.6136474609377	-143.600570678711	1322.005126953125	-999.7901000976565	-63.17734909057619	1301.648193359375	-983.3440551757815	-93.3363494873047	1230.798706054688	-942.4268798828127	161.5235443115235	1283.672485351563	-858.2932739257815	167.0471343994141	1312.085327148438	-754.0480957031251	-372.0764770507813	1434.473022460938	-627.6245727539064	-240.529037475586	1329.9150390625	-517.5837402343751	-202.424057006836	1346.916870117188	-543.6450195312501	-174.1331176757813	1308.6044921875	-506.0362854003907	-103.9563674926758	1293.081420898438	-507.5543212890626	-108.8737182617188	1220.806030273438	-538.4497680664064	100.4237899780274	1303.505126953125	-698.9263305664064	127.0536880493164	1300.024658203125	-625.7028808593751	178.4099273681641	1329.76953125	-724.6545410156251	-317.3890075683594	983.104919433594	-914.6311035156252	-314.2982482910157	970.044860839844	-662.8883056640626	-477.681121826172	1029.946166992188	-789.2515258789065	-482.9974975585939	999.6780395507815	-818.2617187500002	-481.061248779297	997.2454833984377	-760.9509277343751	-258.8774108886719	774.4742431640627	-996.1541748046877	-190.7775115966797	725.5195922851564	-993.3446044921877	-157.0815734863282	751.3902587890626	-967.6575927734377	-184.7345581054688	665.9145507812501	-991.4537353515627	-138.7050170898438	565.7279052734376	-985.5179443359377	-104.9187088012696	563.4419555664064	-859.571228027344	-38.28256607055665	476.9122619628907	-953.4355468750002	-74.87208557128908	418.7928161621095	-1006.122497558594	-36.30939102172852	428.4872436523439	-984.3791503906252	-8.058205604553224	352.3832397460938	-957.5451660156252	-18.97363662719727	191.0030517578125	-983.468688964844	-0.008471040055155756	215.4114837646485	-900.3005981445315	-66.02564239501955	148.8917694091797	-941.7673339843752	137.6090087890625	176.162338256836	-896.4605712890627	145.3122100830078	175.67138671875	-945.5568847656252	116.7771606445313	143.3675079345703	-995.755554199219	-350.7739257812501	758.0293579101564	-612.7328491210939	-303.1153869628907	713.0256347656251	-614.9750366210939	-272.4895935058594	725.1185302734376	-621.3900146484376	-314.1118164062501	629.4879760742189	-630.8353271484376	-302.2634277343751	478.7686462402345	-671.0341186523439	-256.7451171875001	487.4710998535157	-790.6504516601565	-263.6052246093751	339.0968322753907	-754.9667358398439	-327.5725402832032	262.8930664062501	-713.2811889648439	-289.1418762207032	256.2248229980469	-742.7451171875001	-306.6892700195313	221.0529174804688	-787.110534667969	-396.6417236328126	112.2208862304688	-772.212829589844	-358.1540222167969	140.9253997802735	-848.0151367187502	-446.5815429687501	95.6548538208008	-836.2005615234377	-243.3355712890626	55.58318328857423	-823.161804199219	-249.3403778076172	54.25545883178712	-782.5386962890627	-291.6332702636719	33.28144836425782	-734.3884277343751	nan	nan	nan	nan	nan	nan	
314	1.565	-297.9905090332032	1699.435913085938	-767.6257934570314	-437.8015136718751	1576.746215820313	-839.8836059570315	-472.7848205566407	1458.602416992188	-781.761657714844	-486.3158264160157	1136.078491210938	-780.7764892578127	-326.8973693847657	1404.964721679688	-772.8013305664065	-356.7560119628907	1436.491577148438	-917.9288330078127	-210.5910644531251	1336.166870117188	-1002.549499511719	-180.974349975586	1356.05859375	-967.706481933594	-143.2756652832032	1321.670288085938	-999.6474609375002	-62.59915924072267	1301.348022460938	-983.0115966796877	-93.09004211425783	1230.491821289063	-942.1538696289065	161.8567657470703	1283.40625	-858.1544189453127	167.3948669433594	1311.84326171875	-753.7562866210939	-372.0653076171876	1434.141479492188	-627.8961791992189	-240.4284210205079	1329.841674804688	-517.6074829101564	-202.5333099365235	1346.572509765625	-544.0447998046876	-174.0720520019532	1308.390625	-506.1259765625001	-103.9032287597657	1292.904663085938	-507.596160888672	-108.7295684814453	1220.73095703125	-538.3889160156251	101.2716979980469	1303.064575195313	-699.0630493164064	127.282096862793	1299.879272460938	-625.5790405273439	178.6224822998047	1329.492797851563	-724.5094604492189	-317.8277587890626	982.6948852539065	-914.6947021484377	-314.9490051269532	969.5270996093752	-662.9448242187501	-478.1876220703126	1029.595336914063	-789.3470458984377	-483.4388122558595	999.3945312500002	-818.3427734375002	-481.5968017578126	996.9431152343752	-761.0160522460939	-259.3627319335938	774.147399902344	-996.143737792969	-191.0634765625	725.3168334960939	-993.4390258789065	-157.4269714355469	751.1748657226564	-967.7299804687502	-185.9182586669922	665.7821044921876	-991.8282470703127	-138.8470764160157	565.5743408203126	-985.513122558594	-105.2135086059571	563.3301391601564	-859.567565917969	-38.21095657348634	476.7378540039064	-953.195983886719	-75.11724853515626	418.6661376953126	-1006.112426757813	-36.63849639892579	428.2732238769532	-984.3604736328127	-8.245156288146974	352.2850036621094	-957.548767089844	-19.36793518066407	190.9114837646485	-983.3941650390627	-0.2277162522077561	215.2975616455079	-900.2810668945315	-66.24423980712892	148.7983703613282	-941.7444458007815	137.4395294189453	176.0491180419922	-896.341979980469	145.118148803711	175.497543334961	-945.404479980469	116.6512908935547	143.1836853027344	-995.5614013671877	-351.1087646484376	757.5735473632814	-612.7221679687501	-303.2340393066407	712.7404174804689	-614.8903198242189	-272.6834716796876	724.7931518554689	-621.3192749023439	-314.0774841308594	629.1499023437501	-630.7730712890626	-301.8346862792969	478.4533691406251	-670.8782958984376	-256.3561401367188	487.2092895507814	-790.5367431640627	-263.3013916015626	338.8707885742188	-754.9566040039064	-327.3210754394532	262.7527160644532	-713.2708129882814	-288.9022521972657	255.9655151367188	-742.8043823242189	-306.5597839355469	220.9260406494141	-787.122497558594	-396.6459350585939	112.2150344848633	-772.203308105469	-357.9640502929688	140.9514465332032	-848.0262451171877	-446.7163391113282	95.66558074951173	-836.125915527344	-243.3600311279297	55.56898117065431	-823.1350097656252	-249.3377838134766	54.28758239746095	-782.5407714843752	-291.6346435546876	33.29196166992188	-734.3684082031251	nan	nan	nan	nan	nan	nan	
315	1.57	-297.7283935546876	1698.976806640625	-767.7791748046876	-437.5801696777345	1576.604858398438	-840.1331787109377	-472.5442199707032	1458.319458007813	-781.8845214843752	-486.7230529785157	1135.805908203125	-780.8563232421877	-326.7911071777344	1404.492431640625	-772.9744262695315	-356.4398498535157	1436.09912109375	-917.992370605469	-210.2786254882813	1335.785888671875	-1002.46484375	-181.1647338867188	1356.00634765625	-967.9311523437502	-142.8162841796875	1321.401123046875	-999.5098266601565	-62.25096511840822	1301.17431640625	-982.7522583007815	-92.69838714599611	1230.269653320313	-942.1335449218752	162.1437683105469	1283.204223632813	-857.9622192382815	167.8852844238282	1311.303100585938	-753.7236938476564	-371.9583435058594	1433.788696289063	-628.0859985351564	-240.3217468261719	1329.588134765625	-517.8288574218751	-202.5225067138672	1346.297973632813	-544.2738647460939	-173.9972229003907	1308.242797851563	-506.1998291015626	-103.7995986938477	1292.751098632813	-507.6685791015626	-108.6439285278321	1220.640747070313	-538.3567504882814	101.5345077514649	1302.83544921875	-699.0076904296876	127.4678573608399	1299.720336914063	-625.4431762695314	178.8955535888672	1329.2255859375	-724.3914184570314	-318.3563842773438	982.3465576171877	-914.7718505859377	-315.4905700683594	969.1745605468752	-663.0654296875001	-478.7025146484376	1029.268798828125	-789.4088134765627	-483.9957275390626	998.9281005859377	-818.3799438476565	-482.0194702148439	996.6563720703127	-761.1536254882814	-259.7129516601563	773.8729248046877	-996.2509765625002	-191.4849395751953	725.0463256835939	-993.500671386719	-157.9183197021485	750.9857788085939	-967.8084716796877	-186.337387084961	665.4624023437501	-991.7955322265627	-139.1600189208985	565.3984985351564	-985.5246582031252	-105.5806884765625	563.1627197265626	-859.5771484375002	-38.7257194519043	476.6539306640626	-953.423278808594	-75.40892791748048	418.4728393554689	-1006.069946289063	-36.80630111694337	428.103973388672	-984.309753417969	-8.538273811340334	352.1669311523438	-957.5307617187502	-19.49820518493653	190.7076110839844	-983.308776855469	-0.445335626602173	215.1389617919922	-900.226745605469	-66.26358795166017	148.551986694336	-941.6196289062502	137.2302398681641	175.9446105957032	-896.2509765625002	144.936264038086	175.3777770996094	-945.237487792969	116.5169982910157	143.0146942138672	-995.340026855469	-351.3061218261719	757.1399536132814	-612.6344604492189	-303.3579711914063	712.4091186523439	-614.7045288085939	-272.8589477539063	724.5557250976564	-621.2526855468751	-314.0118713378907	628.7825927734376	-630.7026367187501	-301.3510742187501	478.1610412597657	-670.6961669921876	-255.9171905517579	487.041717529297	-790.559020996094	-262.9843750000001	338.6061706542969	-754.8557128906251	-327.1510925292969	262.6441955566407	-713.2290649414064	-288.7142639160157	255.8216857910157	-742.8800659179689	-306.4764404296876	220.8038940429688	-787.222106933594	-396.6519470214845	112.2147216796875	-772.1919555664065	-357.9767761230469	140.8458557128907	-848.0842895507815	-446.6141357421876	95.59846496582033	-836.2410888671877	-243.2039489746094	55.55469131469728	-823.3215942382815	-248.3902130126954	54.81274032592775	-781.4002075195315	-291.5523071289063	33.3059196472168	-734.3323974609376	nan	nan	nan	nan	nan	nan	
316	1.575	-297.4249572753907	1698.5400390625	-767.8983764648439	-437.3114013671876	1575.907470703125	-840.2461547851565	-472.3056030273439	1458.00244140625	-782.087097167969	-487.1451721191407	1135.4501953125	-780.9310302734377	-326.5838317871094	1403.943481445313	-772.9634399414065	-356.6684875488282	1435.705444335938	-918.3253173828127	-209.9078369140626	1335.527954101563	-1002.452209472656	-180.8467864990235	1355.724487304688	-967.8894653320315	-142.4052734375	1321.219970703125	-999.413513183594	-61.99267578125001	1300.99365234375	-982.5762939453127	-92.31837463378908	1230.118286132813	-942.218200683594	162.468994140625	1282.9677734375	-857.764831542969	167.7889862060547	1311.29638671875	-753.7571411132814	-371.8729248046876	1433.473022460938	-628.2650756835939	-240.2016296386719	1329.449584960938	-517.9396972656251	-202.2400360107422	1346.282592773438	-544.0583496093751	-173.9548797607422	1308.030883789063	-506.3182067871095	-103.7548370361328	1292.571044921875	-507.7750244140626	-108.5441970825196	1220.37451171875	-538.3909912109376	102.1707382202149	1302.338745117188	-699.0887451171876	127.6765899658203	1299.531005859375	-625.3020019531251	179.1290130615235	1328.96044921875	-724.2615356445314	-318.8590087890626	981.9445800781252	-914.774353027344	-315.9669799804688	968.5684204101565	-663.0683593750001	-479.0740051269532	1028.923828125	-789.3835449218752	-484.505340576172	998.5662231445315	-818.4119873046877	-482.6165771484376	996.2677001953127	-761.1627197265626	-260.2464904785157	773.6245727539065	-996.3771972656252	-191.9071502685547	724.7445678710939	-993.5104980468752	-158.3822631835938	750.7932128906251	-967.8825683593752	-186.0164184570313	665.0352783203126	-991.6447753906252	-139.3563842773438	565.2186279296876	-985.5717773437502	-105.8757934570313	563.0198364257814	-859.5631103515627	-38.59488677978516	476.4129333496095	-953.0895996093752	-75.7333450317383	418.3465576171876	-1006.006958007813	-37.09519958496094	427.9344482421876	-984.3243408203127	-8.784398078918459	352.0478820800782	-957.4951782226565	-19.08320617675782	190.3976135253907	-983.344421386719	-0.7095853090286256	214.9809570312501	-900.1052856445315	-66.57015228271486	148.4736938476563	-941.6462402343752	137.0593566894532	175.9251251220703	-896.0896606445315	144.8408203125	175.2739715576172	-945.083923339844	116.3517608642578	143.0063018798828	-995.300476074219	-351.4902954101563	756.6732788085939	-612.6036376953126	-303.4619445800782	712.0204467773439	-614.5897827148439	-273.0292663574219	724.2825317382814	-621.1352539062501	-313.9247131347657	628.4110717773439	-630.5958251953126	-300.8596191406251	477.9248046875001	-670.5366821289064	-255.5259399414063	486.875946044922	-790.3317871093752	-262.7196044921876	338.4096679687501	-754.8482666015626	-326.8758239746094	262.4836120605469	-713.1995849609376	-288.4866027832032	255.6567687988282	-742.9906616210939	-306.4238281250001	220.6866760253907	-787.291931152344	-396.6584777832032	112.1458816528321	-772.277038574219	-358.0162658691407	140.8573303222657	-848.145202636719	-446.6128845214845	95.57230377197267	-836.2113037109377	-243.3968200683594	55.56499099731447	-823.5184326171877	-249.3544616699219	54.28675842285158	-782.5766601562502	-291.6466674804688	33.30804443359376	-734.3919677734376	nan	nan	nan	nan	nan	nan	
